
<svg xmlns="http://www.w3.org/2000/svg" width="27.991" height="53.633" viewBox="0 0 27.991 53.633">
  <g id="right-arrow" transform="translate(-117.325 0)">
    <path id="Path_21" data-name="Path 21" d="M119.331.461a1.166,1.166,0,0,0-1.648,1.648L142.5,26.929l-24.82,24.818a1.166,1.166,0,0,0,1.62,1.677l.029-.029,25.643-25.643a1.166,1.166,0,0,0,0-1.648Z" transform="translate(0 -0.119)" fill="#fff"/>
    <path id="Path_22" data-name="Path 22" d="M118.615,53.619a1.166,1.166,0,0,1-.825-1.991L142.61,26.81,117.789,1.992a1.167,1.167,0,0,1,1.65-1.65l25.643,25.643a1.166,1.166,0,0,1,0,1.648L119.44,53.276A1.165,1.165,0,0,1,118.615,53.619Z" transform="translate(-0.109)" fill="#fff"/>
  </g>
</svg>
