
<svg xmlns="http://www.w3.org/2000/svg" width="27.991" height="53.632" viewBox="0 0 27.991 53.632">
  <g id="left-arrow" transform="translate(0)">
    <path id="Path_21" data-name="Path 21" d="M143.307.461a1.166,1.166,0,0,1,1.648,1.648l-24.818,24.82,24.82,24.818a1.166,1.166,0,0,1-1.62,1.677l-.029-.029L117.666,27.752a1.166,1.166,0,0,1,0-1.648Z" transform="translate(-117.323 -0.119)" fill="#fff"/>
    <path id="Path_22" data-name="Path 22" d="M144.257,53.619a1.166,1.166,0,0,0,.825-1.991L120.262,26.81l24.82-24.818a1.167,1.167,0,0,0-1.651-1.65L117.788,25.985a1.166,1.166,0,0,0,0,1.648l25.643,25.643A1.165,1.165,0,0,0,144.257,53.619Z" transform="translate(-117.447 0)" fill="#fff"/>
  </g>
</svg>
