
<svg xmlns="http://www.w3.org/2000/svg" viewBox="0 0 29.98 29.82"><defs><style>.cls-1,.cls-2{fill:none;stroke:#000;stroke-width:2px;}.cls-1{stroke-miterlimit:10;}.cls-2{stroke-linecap:round;stroke-linejoin:round;fill-rule:evenodd;}</style></defs><title>Asset 1</title><g id="Layer_2" data-name="Layer 2"><g id="Layer_1-2" data-name="Layer 1"><path class="cls-1" d="M1,16.4H20.72a0,0,0,0,1,0,0V26.55a2.27,2.27,0,0,1-2.27,2.27H3.27A2.27,2.27,0,0,1,1,26.55V16.4A0,0,0,0,1,1,16.4Z"/><path d="M23.72,17.4H29a1,1,0,1,0,0-2H23.72Z"/><path class="cls-2" d="M5.61,1A2.92,2.92,0,0,0,4.42,3.18C4.44,4.83,6,4.81,6.16,6.42S4.71,8.2,4.63,10a2.25,2.25,0,0,0,.75,1.75"/><path class="cls-2" d="M11.13,1A2.92,2.92,0,0,0,9.94,3.18c0,1.65,1.54,1.63,1.74,3.24S10.23,8.2,10.15,10a2.25,2.25,0,0,0,.75,1.75"/><path class="cls-2" d="M16.65,1a2.92,2.92,0,0,0-1.19,2.18c0,1.65,1.54,1.63,1.74,3.24S15.75,8.2,15.67,10a2.25,2.25,0,0,0,.75,1.75"/></g></g></svg>