<?xml version="1.0" encoding="utf-8"?>
<!-- Generator: Adobe Illustrator 23.0.4, SVG Export Plug-In . SVG Version: 6.00 Build 0)  -->
<svg version="1.1" id="Ebene_1" xmlns="http://www.w3.org/2000/svg" xmlns:xlink="http://www.w3.org/1999/xlink" x="0px" y="0px"
	 viewBox="0 0 437.83 437.83" style="enable-background:new 0 0 437.83 437.83;" xml:space="preserve">
<style type="text/css">
	.st0{fill:#333333;}
</style>
<path class="st0" d="M409.44,428.85H228.36H192.5H32.02c-9.37,0-16.97-7.6-16.97-16.97v-98.56c0-25.55,14.18-48.54,37.02-60
	l54.55-31.43c4.35-2.51,9.81-2.04,13.67,1.17l8.35,6.95c4.08,3.39,3.51,9.81-1.09,12.44l-62.91,35.89
	c-13.31,6.68-21.58,20.09-21.58,34.98v87.53H192.5h35.86h170.05v-87.31c0-14.99-8.35-28.44-21.79-35.08l-63.53-35.84
	c-4.7-2.65-5.21-9.22-0.98-12.57l9.14-7.24c3.87-3.06,9.22-3.45,13.48-0.97l54.31,31.53c23.05,11.4,37.37,34.46,37.37,60.18v98.34
	C426.41,421.25,418.82,428.85,409.44,428.85z"/>
<g id="XMLID_1_">
	<g>
		<path class="st0" d="M219.44,13.13c57.15,0,103.49,46.33,103.49,103.49c0,57.15-46.34,103.48-103.49,103.48
			c-57.16,0-103.49-46.33-103.49-103.48C115.95,59.46,162.28,13.13,219.44,13.13z M292.93,116.62c0-40.52-32.97-73.49-73.49-73.49
			s-73.49,32.97-73.49,73.49s32.97,73.48,73.49,73.48S292.93,157.14,292.93,116.62z"/>
	</g>
	<g>
	</g>
</g>
</svg>
